<mxfile host="app.diagrams.net" agent="Mozilla/5.0 (Windows NT 10.0; Win64; x64; rv:128.0) Gecko/20100101 Firefox/128.0" version="28.1.0">
  <diagram name="Page-1" id="-Bq5pmaMQpLumrQBqbNQ">
    <mxGraphModel dx="3126" dy="1879" grid="1" gridSize="10" guides="1" tooltips="1" connect="1" arrows="1" fold="1" page="1" pageScale="1" pageWidth="850" pageHeight="1100" math="0" shadow="0">
      <root>
        <mxCell id="0" />
        <mxCell id="1" parent="0" />
        <mxCell id="8BzuDYFggQnTBY4QK-u2-1" value="&lt;div align=&quot;left&quot;&gt;&lt;b&gt;EDIT or NEW Equipment&lt;/b&gt;&lt;br&gt;&lt;/div&gt;&lt;div align=&quot;left&quot;&gt;FIELDS:&lt;/div&gt;&lt;div align=&quot;left&quot;&gt;Rental Id/Rental Product name&lt;br&gt;Eclipse ID &lt;br&gt;Rental Description &lt;br&gt;Status&lt;br&gt;Branch&lt;br&gt;Serial #/Barcode&lt;br&gt;Location&lt;br&gt;Depreciation %&lt;br&gt;Deposit %&lt;br&gt;Original Cost&lt;br&gt;Active date&lt;br&gt;Current Value&lt;br&gt;Depreciation to Date &lt;br&gt;Product Image&lt;br&gt;Stock/Nonstock Item&lt;br&gt;Categorization&lt;br&gt;Preventive maintenance scheduling &lt;br&gt;Meter usage tracking&lt;br&gt;&lt;br&gt;&lt;/div&gt;" style="rounded=0;whiteSpace=wrap;html=1;align=left;" vertex="1" parent="1">
          <mxGeometry x="-300" y="-80" width="395" height="350" as="geometry" />
        </mxCell>
        <mxCell id="8BzuDYFggQnTBY4QK-u2-2" value="&lt;br&gt;&lt;br&gt;&lt;br&gt;&lt;br&gt;&lt;p style=&quot;text-indent:-.25in;mso-list:l0 level1 lfo1&quot; class=&quot;MsoListParagraph&quot;&gt;&lt;span style=&quot;font-family: Wingdings; color: red;&quot;&gt;&lt;span style=&quot;mso-list:Ignore&quot;&gt;&lt;span style=&quot;font:7.0pt &amp;quot;Times New Roman&amp;quot;&quot;&gt;&amp;nbsp;&lt;/span&gt;&lt;/span&gt;&lt;/span&gt;&lt;b&gt;&lt;span style=&quot;color: red;&quot;&gt;Product &amp;amp; Equipment Management&lt;/span&gt;&lt;/b&gt;&lt;/p&gt;&lt;br&gt;&lt;br&gt;&lt;br&gt;&lt;br&gt;&lt;div&gt;&lt;br/&gt;&lt;/div&gt;" style="whiteSpace=wrap;html=1;dashed=1;dashPattern=1 4;" vertex="1" parent="1">
          <mxGeometry x="-600" y="-150" width="160" height="60" as="geometry" />
        </mxCell>
        <mxCell id="8BzuDYFggQnTBY4QK-u2-5" value="&lt;div&gt;Retire Screen&lt;/div&gt;&lt;div&gt;FIELDS:&lt;/div&gt;&lt;div&gt;Reason&lt;/div&gt;&lt;div&gt;*User&lt;/div&gt;&lt;div&gt;&lt;br&gt;&lt;/div&gt;" style="whiteSpace=wrap;html=1;" vertex="1" parent="1">
          <mxGeometry x="-425" y="350" width="170" height="90" as="geometry" />
        </mxCell>
        <mxCell id="8BzuDYFggQnTBY4QK-u2-7" value="&lt;div&gt;Track Equipment Service Screen:&lt;/div&gt;&lt;div&gt;&lt;br&gt;&lt;/div&gt;&lt;div&gt;Date&lt;/div&gt;&lt;div&gt;Type: Repair, service, etc&lt;br&gt;&lt;/div&gt;&lt;div&gt;&lt;br&gt;&lt;/div&gt;" style="whiteSpace=wrap;html=1;align=left;rounded=0;" vertex="1" parent="1">
          <mxGeometry x="-770" y="350" width="185" height="95" as="geometry" />
        </mxCell>
        <mxCell id="8BzuDYFggQnTBY4QK-u2-10" style="edgeStyle=orthogonalEdgeStyle;rounded=0;orthogonalLoop=1;jettySize=auto;html=1;" edge="1" parent="1" source="8BzuDYFggQnTBY4QK-u2-9" target="8BzuDYFggQnTBY4QK-u2-1">
          <mxGeometry relative="1" as="geometry" />
        </mxCell>
        <mxCell id="8BzuDYFggQnTBY4QK-u2-15" value="" style="edgeStyle=orthogonalEdgeStyle;rounded=0;orthogonalLoop=1;jettySize=auto;html=1;" edge="1" parent="1" source="8BzuDYFggQnTBY4QK-u2-9" target="8BzuDYFggQnTBY4QK-u2-14">
          <mxGeometry relative="1" as="geometry" />
        </mxCell>
        <mxCell id="8BzuDYFggQnTBY4QK-u2-17" value="" style="edgeStyle=orthogonalEdgeStyle;rounded=0;orthogonalLoop=1;jettySize=auto;html=1;" edge="1" parent="1" source="8BzuDYFggQnTBY4QK-u2-9" target="8BzuDYFggQnTBY4QK-u2-16">
          <mxGeometry relative="1" as="geometry" />
        </mxCell>
        <mxCell id="8BzuDYFggQnTBY4QK-u2-19" value="" style="edgeStyle=orthogonalEdgeStyle;rounded=0;orthogonalLoop=1;jettySize=auto;html=1;" edge="1" parent="1" source="8BzuDYFggQnTBY4QK-u2-9" target="8BzuDYFggQnTBY4QK-u2-14">
          <mxGeometry relative="1" as="geometry" />
        </mxCell>
        <mxCell id="8BzuDYFggQnTBY4QK-u2-9" value="&lt;div&gt;Product home screen:&lt;/div&gt;&lt;div&gt;&lt;br&gt;&lt;/div&gt;&lt;div&gt;List of different ITEMS paginated&amp;nbsp; &lt;br&gt;&lt;/div&gt;&lt;div&gt;Edit/New Showing important data&lt;br&gt;&lt;/div&gt;&lt;div&gt;&lt;br&gt;&lt;/div&gt;" style="rounded=0;whiteSpace=wrap;html=1;" vertex="1" parent="1">
          <mxGeometry x="-650" y="-50" width="280" height="290" as="geometry" />
        </mxCell>
        <mxCell id="8BzuDYFggQnTBY4QK-u2-12" style="edgeStyle=orthogonalEdgeStyle;rounded=0;orthogonalLoop=1;jettySize=auto;html=1;entryX=0.547;entryY=0.011;entryDx=0;entryDy=0;entryPerimeter=0;" edge="1" parent="1" source="8BzuDYFggQnTBY4QK-u2-9" target="8BzuDYFggQnTBY4QK-u2-5">
          <mxGeometry relative="1" as="geometry" />
        </mxCell>
        <mxCell id="8BzuDYFggQnTBY4QK-u2-13" style="edgeStyle=orthogonalEdgeStyle;rounded=0;orthogonalLoop=1;jettySize=auto;html=1;entryX=0.384;entryY=0;entryDx=0;entryDy=0;entryPerimeter=0;" edge="1" parent="1" source="8BzuDYFggQnTBY4QK-u2-9" target="8BzuDYFggQnTBY4QK-u2-7">
          <mxGeometry relative="1" as="geometry" />
        </mxCell>
        <mxCell id="8BzuDYFggQnTBY4QK-u2-14" value="Track Equipment&lt;br&gt;&lt;div&gt;:&lt;/div&gt;&lt;div&gt;Show a map (open maps) where the items is located&lt;br&gt;&lt;/div&gt;" style="whiteSpace=wrap;html=1;rounded=0;" vertex="1" parent="1">
          <mxGeometry x="-960" y="-130" width="210" height="195" as="geometry" />
        </mxCell>
        <mxCell id="8BzuDYFggQnTBY4QK-u2-16" value="&lt;div&gt;History/Track of Rentals&lt;/div&gt;&lt;div&gt;&lt;br&gt;&lt;/div&gt;&lt;div&gt;List all different rentals devices has been part of&lt;br&gt;&lt;/div&gt;" style="whiteSpace=wrap;html=1;rounded=0;" vertex="1" parent="1">
          <mxGeometry x="-610" y="460" width="200" height="175" as="geometry" />
        </mxCell>
        <mxCell id="8BzuDYFggQnTBY4QK-u2-20" value="&lt;div&gt;Log of changes made&lt;/div&gt;&lt;div&gt;&lt;br&gt;&lt;/div&gt;&lt;div&gt;Table with user, date and change made&lt;br&gt;&lt;/div&gt;" style="rounded=0;whiteSpace=wrap;html=1;" vertex="1" parent="1">
          <mxGeometry x="-960" y="120" width="210" height="140" as="geometry" />
        </mxCell>
        <mxCell id="8BzuDYFggQnTBY4QK-u2-21" style="edgeStyle=orthogonalEdgeStyle;rounded=0;orthogonalLoop=1;jettySize=auto;html=1;entryX=1;entryY=0.45;entryDx=0;entryDy=0;entryPerimeter=0;" edge="1" parent="1" source="8BzuDYFggQnTBY4QK-u2-9" target="8BzuDYFggQnTBY4QK-u2-20">
          <mxGeometry relative="1" as="geometry" />
        </mxCell>
      </root>
    </mxGraphModel>
  </diagram>
</mxfile>
